<svg xmlns="http://www.w3.org/2000/svg" viewBox="0 0 58.45 45"><defs><style>.cls-1{fill:#fefeff;}.cls-2{fill:#e7b088;}.cls-3{fill:#dda783;}.cls-4{fill:#f2c4a5;}.cls-5{fill:#b6e7f2;}.cls-6{fill:#ead4c1;}</style></defs><g id="Layer_2" data-name="Layer 2"><g id="OBJECTS"><path class="cls-1" d="M56.6,45H1.85C0,45-.53,43.68.53,42.14l5.38-7.81a4.68,4.68,0,0,1,3.54-1.68H49a4.67,4.67,0,0,1,3.53,1.68l5.38,7.81C59,43.68,58.42,45,56.6,45Z"/><g id="_14" data-name="14"><path class="cls-2" d="M33.38,14.37a5,5,0,0,0-3-2.65,6,6,0,0,0-2.05-.17c-1.74.8-3,1.94-3,3.12a11,11,0,0,0,1.56,5.68,30.88,30.88,0,0,0,6.89-3.48A5.07,5.07,0,0,0,33.38,14.37Z"/><path class="cls-2" d="M26.84,20.35l2.68-5.3a15,15,0,0,1,6.61-2.61c.31-3.13-6.26-2.86-6.26-2.86S25.29,13.8,25.34,14,23,20.21,26.84,20.35Z"/><path class="cls-3" d="M28.29,11.55a6,6,0,0,1,2.05.17,5,5,0,0,1,3,2.65,5.07,5.07,0,0,1,.35,2.5,10.7,10.7,0,0,0,3.94-4.4C36.1,9.79,31.43,10.11,28.29,11.55Z"/><path class="cls-4" d="M24.4,19.19c.08.91.14,1.62.14,1.62s.14,1.58,1.78.7a4.06,4.06,0,0,0,.53-2.7,12.26,12.26,0,0,0-.3-2c-.81-.05-1.64,0-2.43-.15C24.22,17.39,24.32,18.37,24.4,19.19Z"/><polygon class="cls-5" points="14.46 25.07 22.34 38.87 46.83 24.38 38.96 10.57 14.46 25.07"/><path class="cls-4" d="M55.68,0l2.55,8.46.12.39S47.42,11,46.8,11.81s-3.37,4.6-6.89,5.35a12.8,12.8,0,0,0-1.72.52l-.08,0,0,0h0a59.74,59.74,0,0,0-7.18,3.75c-1,.45-1.87-.52-2-1.45-.14-1.17,1-1.73,1.87-2.23,1.5-.89,5.26-2.2,5.08-4.43V13.3c-.67-1.12-2.71-1.11-6.88.28-1.61,2-2.45,3.06-2.45,3.06l0,.12c-.81-.05-1.64,0-2.43-.15,0-.24-.06-.47-.09-.66,1.44-3.07,2.35-4.66,2.35-4.66s5-3,6.56-4.2c2-.55,6.47-.17,9.43-.88C46.35,4.71,55.68,0,55.68,0Z"/><path class="cls-6" d="M30.52,21.2l1.19-.6a1.14,1.14,0,0,0,.6-1.38,1.12,1.12,0,0,0-1.56-.64l-1.23.62a.52.52,0,0,0-.24.7L29.82,21A.52.52,0,0,0,30.52,21.2Z"/><path class="cls-2" d="M58.23,8.46l.12.39S47.42,11,46.8,11.81s-3.37,4.6-6.89,5.35a12.8,12.8,0,0,0-1.72.52c.69-.27,4.13-1.63,5-2.63s2.38-2.5,2.88-3.1,2.06-1.24,5.81-2.16C54.45,9.17,56.92,8.69,58.23,8.46Z"/></g></g></g></svg>