<svg xmlns="http://www.w3.org/2000/svg" xmlns:xlink="http://www.w3.org/1999/xlink" viewBox="0 0 58.68 59.48"><defs><style>.cls-1{fill:#fff;}.cls-2{fill:url(#linear-gradient);}</style><linearGradient id="linear-gradient" x1="421.64" y1="429.3" x2="-117.54" y2="-109.88" gradientUnits="userSpaceOnUse"><stop offset="0" stop-color="#fdb991"/><stop offset="0.12" stop-color="#fdb28f"/><stop offset="0.29" stop-color="#fd9e8b"/><stop offset="0.5" stop-color="#fd7e83"/><stop offset="0.73" stop-color="#fd5278"/><stop offset="0.99" stop-color="#fd196b"/><stop offset="1" stop-color="#fd166a"/></linearGradient></defs><g id="Layer_2" data-name="Layer 2"><g id="OBJECTS"><path class="cls-1" d="M58.68,29.75a29.85,29.85,0,0,1-7.76,20.13,29.06,29.06,0,0,1-43.16,0A29.85,29.85,0,0,1,0,29.75,29.54,29.54,0,0,1,29.34,0,29.54,29.54,0,0,1,58.68,29.75Z"/><path class="cls-2" d="M48.24,47.38a25.43,25.43,0,0,1-37.81,0,15.69,15.69,0,0,1,.87-2.54c.72-1.28,9-3.1,12.28-4.22a5.08,5.08,0,0,0,1.64-.74l.05-.06a9.34,9.34,0,0,0,.55-3.71l-.1-.09a12.86,12.86,0,0,1-3.14-5.14A9.46,9.46,0,0,1,22.14,29l-.08,0a2.56,2.56,0,0,1-2.39-2.7,2.93,2.93,0,0,1,.81-2.41c-.14-2.56,0-7.25,2.76-8.14,0,0-.51-2.83,4.39-3.39s8.62.64,10,4.64A15.7,15.7,0,0,1,38,24.08a2.79,2.79,0,0,1,1,2.12,3.06,3.06,0,0,1-2.5,2.74,9.08,9.08,0,0,1-.43,1.94A12.86,12.86,0,0,1,32.94,36l-.16.14c0,1.2.11,3.14.6,3.72a.19.19,0,0,0,.08.07,7.82,7.82,0,0,0,1.84.76c3.43,1.14,11.38,2.88,12.08,4.13A17.15,17.15,0,0,1,48.24,47.38Z"/></g></g></svg>