<svg xmlns="http://www.w3.org/2000/svg" xmlns:xlink="http://www.w3.org/1999/xlink" viewBox="0 0 155.77 50.6"><defs><style>.cls-1{font-size:26.86px;fill:#fff;font-family:Montserrat-Bold, Montserrat Bold;font-weight:700;}.cls-2{letter-spacing:0em;}.cls-3{letter-spacing:0em;}.cls-4{letter-spacing:0em;}.cls-5{fill:#05ccff;}.cls-6{fill:url(#linear-gradient);}.cls-7{fill:url(#linear-gradient-2);}.cls-8{fill:url(#linear-gradient-3);}.cls-9{fill:url(#Degradado_sin_nombre_3);}.cls-10{fill:url(#linear-gradient-4);}.cls-11{fill:url(#linear-gradient-5);}.cls-12{fill:url(#linear-gradient-6);}.cls-13{fill:url(#Degradado_sin_nombre_3-2);}.cls-14{fill:url(#Degradado_sin_nombre_3-3);}.cls-15{fill:url(#Degradado_sin_nombre_3-4);}</style><linearGradient id="linear-gradient" x1="19.93" y1="26.12" x2="19.67" y2="30.2" gradientUnits="userSpaceOnUse"><stop offset="0" stop-color="#ebeeee"/><stop offset="0.48" stop-color="#dcdcdc"/><stop offset="0.95" stop-color="#89939a"/></linearGradient><linearGradient id="linear-gradient-2" x1="31.19" y1="36.58" x2="3.43" y2="43.76" gradientUnits="userSpaceOnUse"><stop offset="0" stop-color="#fff"/><stop offset="0.48" stop-color="#d1d4d5"/><stop offset="1" stop-color="#89939a"/></linearGradient><linearGradient id="linear-gradient-3" x1="24.48" y1="21.19" x2="14.87" y2="7.41" gradientUnits="userSpaceOnUse"><stop offset="0" stop-color="#fff"/><stop offset="0.48" stop-color="#eaeeee"/><stop offset="1" stop-color="#89939a"/></linearGradient><linearGradient id="Degradado_sin_nombre_3" x1="-1250.65" y1="3206.2" x2="-1250.91" y2="3210.29" gradientTransform="translate(-1214.82 3230.75) rotate(180)" gradientUnits="userSpaceOnUse"><stop offset="0" stop-color="#79f1ff"/><stop offset="0.36" stop-color="#00ceed"/><stop offset="1" stop-color="#003c7b"/></linearGradient><linearGradient id="linear-gradient-4" x1="18.54" y1="-3" x2="7.77" y2="33.74" gradientUnits="userSpaceOnUse"><stop offset="0" stop-color="#fff"/><stop offset="0.48" stop-color="#ebeeee"/><stop offset="1" stop-color="#e1dad7"/></linearGradient><linearGradient id="linear-gradient-5" x1="6.16" y1="44.06" x2="18.46" y2="34.41" gradientUnits="userSpaceOnUse"><stop offset="0" stop-color="#e7fff9"/><stop offset="0.48" stop-color="#ebeeee"/><stop offset="1" stop-color="#89939a"/></linearGradient><linearGradient id="linear-gradient-6" x1="-1020.07" y1="5008.52" x2="-1047.99" y2="5015.74" gradientTransform="translate(-995.5 5022.6) rotate(180)" gradientUnits="userSpaceOnUse"><stop offset="0" stop-color="#00d1ff"/><stop offset="0.48" stop-color="#d1d4d5"/><stop offset="1" stop-color="#00d1ff"/></linearGradient><linearGradient id="Degradado_sin_nombre_3-2" x1="38.63" y1="47.26" x2="47.89" y2="20.28" gradientTransform="matrix(1, 0, 0, 1, 0, 0)" xlink:href="#Degradado_sin_nombre_3"/><linearGradient id="Degradado_sin_nombre_3-3" x1="33.93" y1="34.97" x2="35.94" y2="36.28" gradientTransform="matrix(1, 0, 0, 1, 0, 0)" xlink:href="#Degradado_sin_nombre_3"/><linearGradient id="Degradado_sin_nombre_3-4" x1="38.63" y1="5019.21" x2="47.88" y2="4992.27" gradientTransform="matrix(1, 0, 0, -1, 0, 5022.6)" xlink:href="#Degradado_sin_nombre_3"/></defs><g id="Layer_2" data-name="Layer 2"><g id="OBJECTS"><text class="cls-1" transform="translate(63.12 31.22) scale(1.06 1)"><tspan class="cls-2">D</tspan><tspan class="cls-3" x="17.99" y="0">e</tspan><tspan class="cls-4" x="31.45" y="0">v</tspan><tspan class="cls-5" x="44.26" y="0">app</tspan></text><polygon class="cls-6" points="11.45 28.51 28.05 29.34 14.42 27.48 11.45 28.51"/><polygon class="cls-7" points="11.45 28.51 28.05 29.34 27.88 50.6 11.45 28.51"/><polygon class="cls-8" points="11.45 28.51 27.88 0.05 14.42 27.48 11.45 28.51"/><polygon class="cls-9" points="44.31 22.15 27.71 21.32 41.34 23.17 44.31 22.15"/><polygon class="cls-10" points="11.45 28.51 0 25.31 27.88 0.05 11.45 28.51"/><polygon class="cls-11" points="11.45 28.51 27.88 50.6 0 25.31 11.45 28.51"/><polygon class="cls-12" points="44.42 22.18 27.71 21.34 27.88 0 44.42 22.18"/><polygon class="cls-13" points="55.76 25.31 44.31 22.14 27.88 50.6 55.76 25.31"/><polygon class="cls-14" points="44.31 22.15 27.88 50.6 41.34 23.17 44.31 22.15"/><polygon class="cls-15" points="55.76 25.31 44.31 22.14 27.88 0.05 55.76 25.31"/></g></g></svg>