<svg xmlns="http://www.w3.org/2000/svg" xmlns:xlink="http://www.w3.org/1999/xlink" viewBox="0 0 156.84 150.28"><defs><style>.cls-1{fill:none;}.cls-2{fill:#91a2ce;}.cls-3{clip-path:url(#clip-path);}.cls-4{fill:#d7877a;}.cls-5{fill:#b5675c;}.cls-6{fill:#3c1e18;}.cls-7{fill:#fff;}.cls-8{fill:#b7c9de;}.cls-9{fill:#e1ecf9;}</style><clipPath id="clip-path"><path class="cls-1" d="M156.84,66.89C157.27-27.26,1-18.38,0,70.7-.44,164.83,155.87,156,156.84,66.89Z"/></clipPath></defs><g id="Layer_2" data-name="Layer 2"><g id="OBJECTS"><path class="cls-2" d="M156.84,66.89C157.27-27.26,1-18.38,0,70.7-.44,164.83,155.87,156,156.84,66.89Z"/><g class="cls-3"><path class="cls-4" d="M101,97.11c-2.89-.33-9.28-3-11-5.17-2-2.14-3.53-20.37-3.53-20.37-4.7.91-13.4,1.52-17.81-.17-1.18,12.49,1.15,22.83-13.54,26.42C59.78,107.13,68.64,113,76,119.42Z"/><path class="cls-5" d="M87.05,74.57c-4.22,19.57-16.22,20.24-18.54-.77h0Z"/><path class="cls-5" d="M101.31,49.21c18.15-3.49,6.37,22.45-6.62,13Z"/><path class="cls-5" d="M59,50.24C41.06,47.52,51.45,73,65,62.89Z"/><path class="cls-4" d="M60.12,35.42c4.32-.72,2.93-7.45,3.51-10.54,4.78,1.57,29.88,1.43,34.22-.53-.55,4-.34,10.06,3.68,11.6-.25,3.6-2.7,10.5,0,14.09C97.34,62.69,99.64,68.46,91,74c-3.84,2.66-9.94,6.24-14.25,6.65-16.55-8.28-15-8.78-19.25-30.63C61.39,46.12,59.7,41.36,60.12,35.42Z"/><path class="cls-6" d="M56.31,18.73c-6.1-4.54,3.49-8.41,6.49-4-2.07-2.73,1.46-4.38,4-3.92-2.22-4.45,7.73-6.78,8-.36.63-2.1,3.74-2.35,4.87-1-.69-4,5.33-4.12,6.23-1.19-.28-4.5,8.4-2.63,6,1.94a3.25,3.25,0,0,1,5,1.44c1.83-3.52,7.18,0,4.58,3.35,4.27-.1,6.89,3.83,2.76,6.36,5.21,1.08,1.94,5.15,1.06,9.34-1.38,6.86-2.23,12.33-3.7,19.31-2.69-3.59-.24-10.49,0-14.09-4-1.55-4.23-7.54-3.68-11.6-4.34,2-29.44,2.1-34.22.53-.58,3.09.81,9.82-3.51,10.54-.42,5.94,1.27,10.7-2.65,14.62-1.49-7.33-.61-15.86-1.14-23.68-.73-2.23-3-2.35-3.59-4.25A2.79,2.79,0,0,1,56.31,18.73Z"/><path class="cls-7" d="M85.54,67.35c-2.31,5.49-12.27,6-13.91-.13Z"/><path d="M90,48.45c-.1,4.13,3.45,3.87,3.48-.09C93.57,44.23,90,44.49,90,48.45Z"/><path d="M66.26,49c-.11,4.12,3.45,3.86,3.48-.09C69.84,44.81,66.28,45.07,66.26,49Z"/><path class="cls-5" d="M79.6,45.93c-.57,3.39,2,5.68,3.76,8.19a9.57,9.57,0,0,1,1.46,3.11,4.6,4.6,0,0,1-1.88,4.45c-3.21,2.3-9.1.55-8.89-3.83a6,6,0,0,1,.55-2.11c-.68,2.91,1,5.39,3.93,5.59,2.65.36,5.14-1.37,4.86-3.8-1-3.9-5.7-7.2-3.79-11.6Z"/><path class="cls-6" d="M93.16,37.46c4.87,1.39.81-3.52-1.91-2.88C87.85,35.66,92,37,93.16,37.46Z"/><path class="cls-6" d="M68.27,36.06c2.27-1.36.49-2.62-1.59-1.8-2,0-5,5-1.29,3.64Z"/><path class="cls-4" d="M122.87,130.43c-4.37-.59-12.14.75-17.29.65-.89,4.86-.87,15.24-.87,15.24,5.13.79,12.88.14,18.31-.22C123.33,146,122.87,130.43,122.87,130.43Z"/><path class="cls-4" d="M29.62,132.69c4.4-.8,12.11.17,17.27-.19.66,4.83.16,15.22.16,15.22-5.18,1-12.91.77-18.32.67C28.42,148.29,29.62,132.69,29.62,132.69Z"/><path class="cls-8" d="M52.91,97.47l3.74-1.64c14.77,15.54,33.49,4.4,40.88-1l4.15,1.66C96.72,100.6,71.16,119.84,52.91,97.47Z"/><path class="cls-8" d="M106.51,130c6.71,1.21,15.84-.4,19.34-1.12l.46,3.17c-.39.36-8.66,1.6-20.11,1.3C106.19,133.37,106.51,130,106.51,130Z"/><path class="cls-9" d="M45.76,131.49c-6.63,1.5-15.43.43-19.06-.13C32,103.45,29.44,107.8,52.91,97.47c18.25,22.37,43.81,3.13,48.77-1,23.22,9.11,20.1,5.45,24.17,32.4-3.5.72-12.63,2.33-19.34,1.12,0,0-.32,3.34-.31,3.35h0c-.38,5.08-.62,15.46-.62,15.46.18-.23-14.76.11-25,.36v0c.56,0-10,.23-9.41.23v0c-10.25.24-25.19.63-25,.86,0,0,.22-9.22.12-14.52l1.15,2.29c-.31-.63-1.4-2.49-1.17-3.23-.14,0-.28,0-.42,0S45.79,131.55,45.76,131.49Z"/><path class="cls-8" d="M45.76,131.49c0,.06-.08,3.33,0,3.36-11.27.81-19.3,0-19.68-.34l.61-3.15C30.33,131.92,39.13,133,45.76,131.49Z"/><path class="cls-8" d="M105.85,139.57c-.38-7,.77-14.32,1.58-21.3.55,7.15-.58,14.25-1.58,21.3Z"/><path class="cls-8" d="M109.16,124.76a12,12,0,0,0,1.07-8.63,6.12,6.12,0,0,1-1.07,8.63Z"/><path class="cls-8" d="M46.24,141c-.66-7.06-1.47-14.16-.58-21.25.48,7,1.29,14.28.58,21.25Z"/><path class="cls-8" d="M43.62,126.36c-2.64-1.87-2.88-6.32-.66-8.6a11.6,11.6,0,0,0,.66,8.6Z"/></g></g></g></svg>